<?xml version="1.0" standalone="no"?>
<!DOCTYPE svg PUBLIC "-//W3C//DTD SVG 1.1//EN" "http://www.w3.org/Graphics/SVG/1.1/DTD/svg11.dtd">
<svg xmlns="http://www.w3.org/2000/svg" id="Capa_1" data-name="Capa 1" viewBox="0 0 647.84 726.3" width="647.8400268554688" height="726.2999877929688">
  <defs>
    <style>
      .cls-1 {
        fill: none;
      }
    </style>
  </defs>
  <path class="cls-1" d="M350.05,133.11c9.92-2.59,17.85-8.41,20.03-18.48,2.52-11.63,1.91-23.71-3.9-34.56-11.26-21.04-28.37-33.31-56.25-33.92-3.16,.72-9.69,1.47-15.65,3.73-7.86,2.98-13.66,8.95-15.34,17.37-3.49,17.55,.77,33.65,12.56,46.88,15.59,17.49,35.02,25.13,58.55,18.98Z"/>
  <g>
    <path class="cls-1" d="M584.8,674.4c-12.65,5.5-26.44,7.59-40.19,6.58-13.08-.96-26.16-2.98-39.03-5.57-20.89-4.2-40.28-12.3-58.73-23.19-14.54-8.58-28.18-18.11-40.59-29.51-1.49-1.36-3.39-2.27-5.49-3.65,.56-2.55,1.86-4.02,3.46-4.99-1.72,.97-3.13,2.46-3.73,5.14,2.1,1.38,4,2.29,5.49,3.66,12.39,11.42,26.01,20.97,40.53,29.58,18.43,10.92,37.81,19.06,58.69,23.3,12.87,2.61,25.94,4.66,39.02,5.65,13.74,1.03,27.54-1.03,40.2-6.5,7.21-3.12,14.8-7.6,19.59-13.58,.62-.77,1.18-1.57,1.7-2.37-.42,.62-.87,1.23-1.35,1.84-4.78,5.99-12.36,10.49-19.57,13.62Z"/>
    <path class="cls-1" d="M607.96,625.98c-4.05-13.78-13.22-24.38-24.87-32.43-23.02-15.89-48.23-21.27-75.68-14.4-4.8,1.2-9.65,2.2-14.41,3.5-10.04,2.76-20.25,5.1-30.03,8.64-17.51,6.33-34.82,13.24-52.04,20.34-2.05,.85-4.6,1.26-6.7,2.44-1.6,.98-2.9,2.45-3.46,4.99,2.1,1.38,4.01,2.28,5.49,3.65,12.41,11.39,26.05,20.93,40.59,29.51,18.45,10.89,37.84,18.98,58.73,23.19,12.87,2.59,25.95,4.61,39.03,5.57,13.74,1.01,27.53-1.08,40.19-6.58,7.2-3.13,14.78-7.63,19.57-13.62,.48-.6,.93-1.22,1.35-1.84,6.42-9.88,5.52-21.8,2.24-32.96Z"/>
    <path d="M629.59,564.42c-28.59-34.26-80.58-38.5-123.79-27.37-43.21,11.13-82.43,34.46-125.37,46.6-3.37,.95-7.01,1.83-10.31,.64-3.72-1.34-6.04-4.96-8.08-8.35-59.19-98.52-108.02-203.26-145.42-311.94-5.16-14.98-13.2-32.66-28.97-34.2-19.36-1.89-30.14,21.55-34.12,40.59-11.89,56.92-16.39,115.34-13.52,173.41,.71,14.39,1.87,28.75,3.49,43.06,.47,4.18,1.07,8.58,3.67,11.89,3.4,4.32,9.67,5.69,14.97,4.24,20.95-5.73,19.71-35.05,19.33-52.27-.41-18.62-1.58-37.07-2.89-55.63-1.42-20.19-.58-40.45,.84-60.61,.55-7.8,1.54-15.65,1.59-23.48-1.68-6.91-3.1-17.25-7.23-21.29,5.25,5.13,6.83,9.5,7.16,17.16,.06,1.38,.07,2.76,.06,4.14,.31,1.29,.63,2.47,.98,3.46,4.85,13.64,9.88,27.22,15.08,40.74,10.41,27.02,21.52,53.78,33.33,80.22,26.6,59.59,57.04,116.61,90.72,172.4,.63,1.05,.1,4.13-.74,4.54-8.06,3.95-16.25,7.65-24.51,11.18-7.45,3.18-15.1,5.92-22.56,9.1-11.11,4.74-21.99,10.02-33.21,14.47-16.48,6.54-33.24,12.12-49.92,18.01-16.76,5.92-33.9,11.15-51.6,13.36-20.49,2.56-41.94,.86-60.57-8.06s-34.04-25.7-38.33-45.9c-1.48-6.97-1.59-14.45,1.15-21.03,3.74-8.96,12.19-15.06,20.91-19.32,9.89-4.84,20.68-7.94,31.67-8.55,18.18-1.01,36.13,4.8,52.53,12.71s31.68,17.97,47.89,26.28c5.64,2.89,11.5,5.61,17.77,6.53,10.17,1.49,29.84-5.41,32.44-17.47,1.92-8.87-5.95-17.1-11.88-22.5-20.49-18.67-48.31-30.8-74.07-40.2-9.89-3.61-20.72-7.79-31.35-8.35-44.45-2.34-91.28,17.78-113.96,56.07-22.68,38.29-15.04,93.98,21.4,119.52,27.83,19.51,64.97,19.02,98.41,12.91,63.74-11.64,122.83-40.4,181.65-67.57,7.35-3.4,15.04-6.84,23.14-6.62,11.63,.32,21.54,8.03,30.75,15.14,36.4,28.11,77,52.69,122.18,61.27,45.18,8.58,95.73-1.11,128.21-33.68,32.47-32.57,40.51-89.91,11.04-125.23Zm-25.57,96.89c-4.8,5.98-12.38,10.46-19.59,13.58-12.66,5.48-26.46,7.54-40.2,6.5-13.08-.98-26.15-3.03-39.02-5.65-20.88-4.24-40.26-12.38-58.69-23.3-14.52-8.61-28.14-18.17-40.53-29.58-1.48-1.37-3.39-2.28-5.49-3.66,.59-2.68,2.01-4.17,3.73-5.14,2.14-1.31,4.82-1.72,6.95-2.61,17.2-7.13,34.5-14.07,52-20.44,9.77-3.55,19.97-5.92,30.01-8.7,4.76-1.32,9.61-2.32,14.4-3.53,27.43-6.93,52.66-1.59,75.7,14.25,11.67,8.03,20.86,18.62,24.94,32.39,3.36,11.36,4.27,23.5-2.52,33.5-.52,.8-1.08,1.6-1.7,2.37Z"/>
    <path d="M608.24,625.44c-4.08-13.77-13.26-24.36-24.94-32.39-23.05-15.85-48.27-21.18-75.7-14.25-4.79,1.21-9.64,2.21-14.4,3.53-10.04,2.78-20.24,5.14-30.01,8.7-17.5,6.37-34.8,13.3-52,20.44-2.14,.89-4.81,1.3-6.95,2.61,2.1-1.19,4.65-1.6,6.7-2.44,17.22-7.1,34.53-14,52.04-20.34,9.77-3.54,19.98-5.88,30.03-8.64,4.76-1.31,9.62-2.3,14.41-3.5,27.45-6.88,52.66-1.49,75.68,14.4,11.66,8.05,20.82,18.66,24.87,32.43,3.28,11.16,4.18,23.08-2.24,32.96,6.79-10,5.89-22.14,2.52-33.5Z"/>
    <path d="M173.78,289.71c4.13,4.04,5.55,14.38,7.23,21.29,0-1.38,0-2.76-.06-4.14-.33-7.66-1.92-12.03-7.16-17.16Z"/>
    <path d="M305.02,285.38c1.45,14.48,2.95,28.97,4.85,43.38,1.76,13.33,3.79,26.63,6.24,39.82,1.94,10.46,4.21,20.91,7.24,31.05,3.08,10.27,7.11,20.32,11.06,30.27,3.13,7.89,6.11,15.89,10.33,23.12,5.67,9.69,12.46,18.66,18.82,27.89,4.94,7.17,10.58,13.45,18.31,17.52,6.19,3.26,12.04,3.23,18.18-.14,10.59-5.8,16.09-16.22,20.78-26.76,4.75-10.67,8.66-21.89,11.61-33.24,5.56-21.36,11.27-42.8,14.9-64.55,5.06-30.3,8.34-60.9,12.21-91.39,.92-7.25,1.38-14.58,1.66-21.88,.2-5.25-2.43-8.53-6.88-8.26-3.85,.23-8.1,.78-11.41,2.69-11.01,6.34-19.21,15.15-20.12,29.35-.69,10.87-1.4,21.74-2.43,32.58-2.19,22.96-4.29,45.93-7.01,68.83-1.93,16.28-5.4,31.51-8.16,47.68-.84,4.92-2.3,10.58-4.36,16.71-2.87-3.25-4.74-5.22-6.35-7.29-8.98-11.5-17.26-27.45-23.58-41.29-5.23-11.45-7.4-22.49-10.43-34.86-4.24-17.35-7.25-35.06-10.51-52.67-1.46-7.88-2.34-15.89-3.3-23.87-1.12-9.22-2.18-18.45-3.02-27.7-.87-9.56-1.21-19.19-2.22-28.72-1.17-10.96-5.19-14.43-13.94-12.04-3.35,.91-6.69,2.8-9.49,5.03-8.89,7.07-16.78,14.88-15.49,28.22,.98,10.16,1.48,20.37,2.5,30.52Z"/>
  </g>
  <path d="M291.34,177.73c21,6.01,41.3,3.57,60.39-5.41,13.7-6.44,25.65-16.23,35.28-28.35,14.73-18.53,25.59-40.27,25.13-64.45-.33-5.82,.25-11.88-1.17-17.42-3.12-12.15-7.24-23.79-15.78-33.79-10.85-12.7-23.76-21.89-39.72-25.81-26.75-6.57-51.16,.15-73.35,15.72-13.95,9.79-24.54,22.78-32.88,37.44-3.74,6.58-6.29,13.98-8.45,21.28-1.87,6.33-2.65,13.02-3.49,19.61-2.33,18.27,2.23,35.28,12.05,50.37,9.94,15.27,23.99,25.65,41.97,30.8Zm-12.12-110.4c.55-1.9,1.28-3.73,2.22-5.47,6.23-11.46,20.61-16.26,33.64-15.66,16.73,.77,32.98,9.04,43.45,22.11,32.75,40.9-2.77,82.23-48.11,61.08-19.13-8.93-32.32-29.33-32.61-50.44-.05-3.91,.32-7.87,1.4-11.61Z"/>
</svg>